<svg xmlns="http://www.w3.org/2000/svg" version="1.1" xmlns:xlink="http://www.w3.org/1999/xlink" xmlns:svgjs="http://svgjs.dev/svgjs" width="1440" height="2560" preserveAspectRatio="none" viewBox="0 0 1440 2560"><g mask="url(&quot;#SvgjsMask1051&quot;)" fill="none"><rect width="1440" height="2560" x="0" y="0" fill="#0e2a47"></rect><path d="M89 2560L2649 0L3235.5 0L675.5 2560z" fill="url(&quot;#SvgjsLinearGradient1052&quot;)"></path><path d="M556.2 2560L3116.2 0L3321.7 0L761.7 2560z" fill="url(&quot;#SvgjsLinearGradient1052&quot;)"></path><path d="M1382 2560L-1178 0L-1844 0L716 2560z" fill="url(&quot;#SvgjsLinearGradient1053&quot;)"></path><path d="M946.8 2560L-1613.2 0L-1857.7 0L702.3 2560z" fill="url(&quot;#SvgjsLinearGradient1053&quot;)"></path><path d="M652.6597751308045 2560L1440 1772.6597751308045L1440 2560z" fill="url(&quot;#SvgjsLinearGradient1052&quot;)"></path><path d="M0 2560L787.3402248691955 2560L 0 1772.6597751308045z" fill="url(&quot;#SvgjsLinearGradient1053&quot;)"></path></g><defs><mask id="SvgjsMask1051"><rect width="1440" height="2560" fill="#ffffff"></rect></mask><linearGradient x1="0%" y1="100%" x2="100%" y2="0%" id="SvgjsLinearGradient1052"><stop stop-color="rgba(15, 70, 185, 0.2)" offset="0"></stop><stop stop-opacity="0" stop-color="rgba(15, 70, 185, 0.2)" offset="0.66"></stop></linearGradient><linearGradient x1="100%" y1="100%" x2="0%" y2="0%" id="SvgjsLinearGradient1053"><stop stop-color="rgba(15, 70, 185, 0.2)" offset="0"></stop><stop stop-opacity="0" stop-color="rgba(15, 70, 185, 0.2)" offset="0.66"></stop></linearGradient></defs></svg>