<svg xmlns="http://www.w3.org/2000/svg" version="1.1" xmlns:xlink="http://www.w3.org/1999/xlink" xmlns:svgjs="http://svgjs.dev/svgjs" width="2160" height="3840" preserveAspectRatio="none" viewBox="0 0 2160 3840"><g mask="url(&quot;#SvgjsMask1000&quot;)" fill="none"><rect width="2160" height="3840" x="0" y="0" fill="rgba(255, 255, 255, 1)"></rect><path d="M138 3840L3978 0L4219.5 0L379.5 3840z" fill="url(&quot;#SvgjsLinearGradient1001&quot;)"></path><path d="M804.8000000000001 3840L4644.8 0L4752.8 0L912.8000000000001 3840z" fill="url(&quot;#SvgjsLinearGradient1001&quot;)"></path><path d="M2019 3840L-1821 0L-2802 0L1038 3840z" fill="url(&quot;#SvgjsLinearGradient1002&quot;)"></path><path d="M1329.1999999999998 3840L-2510.8 0L-2849.8 0L990.1999999999998 3840z" fill="url(&quot;#SvgjsLinearGradient1002&quot;)"></path><path d="M445.7918318148088 3840L2160 2125.7918318148086L2160 3840z" fill="url(&quot;#SvgjsLinearGradient1001&quot;)"></path><path d="M0 3840L1714.2081681851912 3840L 0 2125.7918318148086z" fill="url(&quot;#SvgjsLinearGradient1002&quot;)"></path></g><defs><mask id="SvgjsMask1000"><rect width="2160" height="3840" fill="#ffffff"></rect></mask><linearGradient x1="0%" y1="100%" x2="100%" y2="0%" id="SvgjsLinearGradient1001"><stop stop-color="rgba(15, 70, 185, 0.2)" offset="0"></stop><stop stop-opacity="0" stop-color="rgba(15, 70, 185, 0.2)" offset="0.66"></stop></linearGradient><linearGradient x1="100%" y1="100%" x2="0%" y2="0%" id="SvgjsLinearGradient1002"><stop stop-color="rgba(15, 70, 185, 0.2)" offset="0"></stop><stop stop-opacity="0" stop-color="rgba(15, 70, 185, 0.2)" offset="0.66"></stop></linearGradient></defs></svg>